<mxfile host="Electron" modified="2024-08-17T09:08:25.863Z" agent="Mozilla/5.0 (Windows NT 10.0; Win64; x64) AppleWebKit/537.36 (KHTML, like Gecko) draw.io/24.0.4 Chrome/120.0.6099.109 Electron/28.1.0 Safari/537.36" etag="3bWoe1PVaYJ77Sq6FJjx" version="24.0.4" type="device" pages="5">
  <diagram id="BE0j2r4Lm2kILvL6eKiS" name="HTTP">
    <mxGraphModel dx="1050" dy="629" grid="1" gridSize="10" guides="1" tooltips="1" connect="1" arrows="1" fold="1" page="1" pageScale="1" pageWidth="850" pageHeight="1100" math="0" shadow="0">
      <root>
        <mxCell id="0" />
        <mxCell id="1" parent="0" />
        <mxCell id="H0hOAZvOnUiBrbu-XXL3-1" value="Trình duyệt web" style="shape=umlActor;verticalLabelPosition=bottom;verticalAlign=top;html=1;outlineConnect=0;" parent="1" vertex="1">
          <mxGeometry x="130" y="210" width="30" height="60" as="geometry" />
        </mxCell>
        <mxCell id="H0hOAZvOnUiBrbu-XXL3-2" value="Mạng" style="ellipse;shape=cloud;whiteSpace=wrap;html=1;" parent="1" vertex="1">
          <mxGeometry x="425" y="185" width="190" height="110" as="geometry" />
        </mxCell>
        <mxCell id="H0hOAZvOnUiBrbu-XXL3-3" value="Máy chủ HTTP" style="shape=cube;whiteSpace=wrap;html=1;boundedLbl=1;backgroundOutline=1;darkOpacity=0.05;darkOpacity2=0.1;" parent="1" vertex="1">
          <mxGeometry x="840" y="205" width="120" height="70" as="geometry" />
        </mxCell>
        <mxCell id="H0hOAZvOnUiBrbu-XXL3-4" value="1. Gửi yêu cầu (HTTP Request)" style="endArrow=classic;html=1;rounded=0;" parent="1" source="H0hOAZvOnUiBrbu-XXL3-1" target="H0hOAZvOnUiBrbu-XXL3-2" edge="1">
          <mxGeometry width="50" height="50" relative="1" as="geometry">
            <mxPoint x="400" y="200" as="sourcePoint" />
            <mxPoint x="450" y="150" as="targetPoint" />
          </mxGeometry>
        </mxCell>
        <mxCell id="H0hOAZvOnUiBrbu-XXL3-5" value="2. Nhận yêu cầu" style="endArrow=classic;html=1;rounded=0;" parent="1" source="H0hOAZvOnUiBrbu-XXL3-2" target="H0hOAZvOnUiBrbu-XXL3-3" edge="1">
          <mxGeometry width="50" height="50" relative="1" as="geometry">
            <mxPoint x="540" y="190" as="sourcePoint" />
            <mxPoint x="590" y="140" as="targetPoint" />
          </mxGeometry>
        </mxCell>
        <mxCell id="H0hOAZvOnUiBrbu-XXL3-6" value="3. Tạo nội dung phản hồi (HTTP Response)" style="endArrow=classic;html=1;rounded=0;entryX=0;entryY=0;entryDx=120;entryDy=45;entryPerimeter=0;exitX=0;exitY=0;exitDx=50;exitDy=0;exitPerimeter=0;" parent="1" source="H0hOAZvOnUiBrbu-XXL3-3" target="H0hOAZvOnUiBrbu-XXL3-3" edge="1">
          <mxGeometry width="50" height="50" relative="1" as="geometry">
            <mxPoint x="860" y="120" as="sourcePoint" />
            <mxPoint x="910" y="70" as="targetPoint" />
            <Array as="points">
              <mxPoint x="890" y="160" />
              <mxPoint x="1000" y="160" />
              <mxPoint x="1000" y="250" />
            </Array>
          </mxGeometry>
        </mxCell>
        <mxCell id="H0hOAZvOnUiBrbu-XXL3-7" value="4. Gửi phản hồi" style="endArrow=classic;html=1;rounded=0;" parent="1" source="H0hOAZvOnUiBrbu-XXL3-3" target="H0hOAZvOnUiBrbu-XXL3-2" edge="1">
          <mxGeometry width="50" height="50" relative="1" as="geometry">
            <mxPoint x="680" y="220" as="sourcePoint" />
            <mxPoint x="730" y="170" as="targetPoint" />
            <Array as="points">
              <mxPoint x="730" y="300" />
            </Array>
          </mxGeometry>
        </mxCell>
        <mxCell id="H0hOAZvOnUiBrbu-XXL3-8" value="5. Nhận phản hồi" style="endArrow=classic;html=1;rounded=0;" parent="1" source="H0hOAZvOnUiBrbu-XXL3-2" target="H0hOAZvOnUiBrbu-XXL3-1" edge="1">
          <mxGeometry width="50" height="50" relative="1" as="geometry">
            <mxPoint x="400" y="250" as="sourcePoint" />
            <mxPoint x="450" y="200" as="targetPoint" />
            <Array as="points">
              <mxPoint x="290" y="300" />
            </Array>
          </mxGeometry>
        </mxCell>
        <mxCell id="H0hOAZvOnUiBrbu-XXL3-9" value="6. Đọc nội dung phản hồi&lt;div&gt;7. Show nội dung phản hồi ra màn hình&lt;/div&gt;" style="endArrow=classic;html=1;rounded=0;exitX=0.5;exitY=0;exitDx=0;exitDy=0;exitPerimeter=0;entryX=0.5;entryY=0.5;entryDx=0;entryDy=0;entryPerimeter=0;" parent="1" source="H0hOAZvOnUiBrbu-XXL3-1" target="H0hOAZvOnUiBrbu-XXL3-1" edge="1">
          <mxGeometry x="-0.5" y="-20" width="50" height="50" relative="1" as="geometry">
            <mxPoint x="330" y="250" as="sourcePoint" />
            <mxPoint x="380" y="200" as="targetPoint" />
            <Array as="points">
              <mxPoint x="90" y="210" />
              <mxPoint x="90" y="240" />
            </Array>
            <mxPoint as="offset" />
          </mxGeometry>
        </mxCell>
      </root>
    </mxGraphModel>
  </diagram>
  <diagram id="4jxu6Z6Tkr9iP1p9Wkg9" name="JavaEE">
    <mxGraphModel dx="875" dy="524" grid="1" gridSize="10" guides="1" tooltips="1" connect="1" arrows="1" fold="1" page="1" pageScale="1" pageWidth="850" pageHeight="1100" math="0" shadow="0">
      <root>
        <mxCell id="0" />
        <mxCell id="1" parent="0" />
        <mxCell id="LNMYyl7ZYqf6SEyCVHIO-1" value="JavaEE" style="rounded=0;whiteSpace=wrap;html=1;" vertex="1" parent="1">
          <mxGeometry x="365" y="160" width="120" height="60" as="geometry" />
        </mxCell>
        <mxCell id="LNMYyl7ZYqf6SEyCVHIO-2" value="JavaEE Container" style="rounded=0;whiteSpace=wrap;html=1;" vertex="1" parent="1">
          <mxGeometry x="210" y="340" width="120" height="60" as="geometry" />
        </mxCell>
        <mxCell id="LNMYyl7ZYqf6SEyCVHIO-3" value="" style="endArrow=classic;html=1;rounded=0;" edge="1" parent="1" source="LNMYyl7ZYqf6SEyCVHIO-1" target="LNMYyl7ZYqf6SEyCVHIO-2">
          <mxGeometry width="50" height="50" relative="1" as="geometry">
            <mxPoint x="390" y="350" as="sourcePoint" />
            <mxPoint x="440" y="300" as="targetPoint" />
          </mxGeometry>
        </mxCell>
        <mxCell id="LNMYyl7ZYqf6SEyCVHIO-4" value="JavaEE Application" style="rounded=0;whiteSpace=wrap;html=1;" vertex="1" parent="1">
          <mxGeometry x="500" y="340" width="120" height="60" as="geometry" />
        </mxCell>
        <mxCell id="LNMYyl7ZYqf6SEyCVHIO-5" value="" style="endArrow=classic;html=1;rounded=0;" edge="1" parent="1" source="LNMYyl7ZYqf6SEyCVHIO-1" target="LNMYyl7ZYqf6SEyCVHIO-4">
          <mxGeometry width="50" height="50" relative="1" as="geometry">
            <mxPoint x="390" y="350" as="sourcePoint" />
            <mxPoint x="440" y="300" as="targetPoint" />
          </mxGeometry>
        </mxCell>
        <mxCell id="LNMYyl7ZYqf6SEyCVHIO-6" value="Thực thi" style="endArrow=classic;html=1;rounded=0;" edge="1" parent="1" source="LNMYyl7ZYqf6SEyCVHIO-2" target="LNMYyl7ZYqf6SEyCVHIO-4">
          <mxGeometry width="50" height="50" relative="1" as="geometry">
            <mxPoint x="410" y="280" as="sourcePoint" />
            <mxPoint x="460" y="230" as="targetPoint" />
          </mxGeometry>
        </mxCell>
      </root>
    </mxGraphModel>
  </diagram>
  <diagram name="Apache Tomcat" id="xl3Wci44Y08lG5HK9XTW">
    <mxGraphModel dx="1050" dy="629" grid="1" gridSize="10" guides="1" tooltips="1" connect="1" arrows="1" fold="1" page="1" pageScale="1" pageWidth="850" pageHeight="1100" math="0" shadow="0">
      <root>
        <mxCell id="ptEQHaKpG_7TePYFlzf0-0" />
        <mxCell id="ptEQHaKpG_7TePYFlzf0-1" parent="ptEQHaKpG_7TePYFlzf0-0" />
        <mxCell id="ptEQHaKpG_7TePYFlzf0-2" value="JavaEE" style="rounded=0;whiteSpace=wrap;html=1;" vertex="1" parent="ptEQHaKpG_7TePYFlzf0-1">
          <mxGeometry x="365" y="160" width="120" height="60" as="geometry" />
        </mxCell>
        <mxCell id="ptEQHaKpG_7TePYFlzf0-3" value="JavaEE Container" style="rounded=0;whiteSpace=wrap;html=1;" vertex="1" parent="ptEQHaKpG_7TePYFlzf0-1">
          <mxGeometry x="210" y="340" width="120" height="60" as="geometry" />
        </mxCell>
        <mxCell id="ptEQHaKpG_7TePYFlzf0-4" value="" style="endArrow=classic;html=1;rounded=0;" edge="1" parent="ptEQHaKpG_7TePYFlzf0-1" source="ptEQHaKpG_7TePYFlzf0-2" target="ptEQHaKpG_7TePYFlzf0-3">
          <mxGeometry width="50" height="50" relative="1" as="geometry">
            <mxPoint x="390" y="350" as="sourcePoint" />
            <mxPoint x="440" y="300" as="targetPoint" />
          </mxGeometry>
        </mxCell>
        <mxCell id="ptEQHaKpG_7TePYFlzf0-5" value="JavaEE Application" style="rounded=0;whiteSpace=wrap;html=1;" vertex="1" parent="ptEQHaKpG_7TePYFlzf0-1">
          <mxGeometry x="500" y="340" width="120" height="60" as="geometry" />
        </mxCell>
        <mxCell id="ptEQHaKpG_7TePYFlzf0-6" value="" style="endArrow=classic;html=1;rounded=0;" edge="1" parent="ptEQHaKpG_7TePYFlzf0-1" source="ptEQHaKpG_7TePYFlzf0-2" target="ptEQHaKpG_7TePYFlzf0-5">
          <mxGeometry width="50" height="50" relative="1" as="geometry">
            <mxPoint x="390" y="350" as="sourcePoint" />
            <mxPoint x="440" y="300" as="targetPoint" />
          </mxGeometry>
        </mxCell>
        <mxCell id="ZUTtYpEBGeUqTKrPbgvc-0" value="Apache" style="rounded=0;whiteSpace=wrap;html=1;" vertex="1" parent="ptEQHaKpG_7TePYFlzf0-1">
          <mxGeometry x="365" y="640" width="120" height="60" as="geometry" />
        </mxCell>
        <mxCell id="ZUTtYpEBGeUqTKrPbgvc-1" value="Tomcat Container" style="rounded=0;whiteSpace=wrap;html=1;" vertex="1" parent="ptEQHaKpG_7TePYFlzf0-1">
          <mxGeometry x="210" y="500" width="120" height="60" as="geometry" />
        </mxCell>
        <mxCell id="ZUTtYpEBGeUqTKrPbgvc-2" value="Apache HTTP Server" style="rounded=0;whiteSpace=wrap;html=1;" vertex="1" parent="ptEQHaKpG_7TePYFlzf0-1">
          <mxGeometry x="500" y="500" width="120" height="60" as="geometry" />
        </mxCell>
        <mxCell id="ZUTtYpEBGeUqTKrPbgvc-3" value="" style="endArrow=classic;html=1;rounded=0;" edge="1" parent="ptEQHaKpG_7TePYFlzf0-1" source="ZUTtYpEBGeUqTKrPbgvc-0" target="ZUTtYpEBGeUqTKrPbgvc-1">
          <mxGeometry width="50" height="50" relative="1" as="geometry">
            <mxPoint x="390" y="460" as="sourcePoint" />
            <mxPoint x="440" y="410" as="targetPoint" />
          </mxGeometry>
        </mxCell>
        <mxCell id="ZUTtYpEBGeUqTKrPbgvc-4" value="" style="endArrow=classic;html=1;rounded=0;" edge="1" parent="ptEQHaKpG_7TePYFlzf0-1" source="ZUTtYpEBGeUqTKrPbgvc-0" target="ZUTtYpEBGeUqTKrPbgvc-2">
          <mxGeometry width="50" height="50" relative="1" as="geometry">
            <mxPoint x="390" y="460" as="sourcePoint" />
            <mxPoint x="440" y="410" as="targetPoint" />
          </mxGeometry>
        </mxCell>
        <mxCell id="ZUTtYpEBGeUqTKrPbgvc-5" value="Triển khai" style="endArrow=classic;html=1;rounded=0;" edge="1" parent="ptEQHaKpG_7TePYFlzf0-1" source="ZUTtYpEBGeUqTKrPbgvc-1" target="ptEQHaKpG_7TePYFlzf0-3">
          <mxGeometry width="50" height="50" relative="1" as="geometry">
            <mxPoint x="390" y="560" as="sourcePoint" />
            <mxPoint x="440" y="510" as="targetPoint" />
          </mxGeometry>
        </mxCell>
        <mxCell id="ZUTtYpEBGeUqTKrPbgvc-6" value="Thực thi" style="endArrow=classic;html=1;rounded=0;" edge="1" parent="ptEQHaKpG_7TePYFlzf0-1" source="ZUTtYpEBGeUqTKrPbgvc-1" target="ptEQHaKpG_7TePYFlzf0-5">
          <mxGeometry width="50" height="50" relative="1" as="geometry">
            <mxPoint x="410" y="280" as="sourcePoint" />
            <mxPoint x="460" y="230" as="targetPoint" />
          </mxGeometry>
        </mxCell>
        <mxCell id="ZUTtYpEBGeUqTKrPbgvc-7" value="Thực thi" style="endArrow=classic;html=1;rounded=0;" edge="1" parent="ptEQHaKpG_7TePYFlzf0-1" source="ptEQHaKpG_7TePYFlzf0-3" target="ptEQHaKpG_7TePYFlzf0-5">
          <mxGeometry width="50" height="50" relative="1" as="geometry">
            <mxPoint x="410" y="280" as="sourcePoint" />
            <mxPoint x="460" y="230" as="targetPoint" />
          </mxGeometry>
        </mxCell>
      </root>
    </mxGraphModel>
  </diagram>
  <diagram name="Servlet" id="9DTkj44-Q8ck7W-l078X">
    <mxGraphModel dx="1050" dy="629" grid="1" gridSize="10" guides="1" tooltips="1" connect="1" arrows="1" fold="1" page="1" pageScale="1" pageWidth="850" pageHeight="1100" math="0" shadow="0">
      <root>
        <mxCell id="BRgnJ0PHQMTPJbR9eP97-0" />
        <mxCell id="BRgnJ0PHQMTPJbR9eP97-1" parent="BRgnJ0PHQMTPJbR9eP97-0" />
        <mxCell id="uJZphUykILN5ftCnCod7-1" value="Trình duyệt web" style="shape=umlActor;verticalLabelPosition=bottom;verticalAlign=top;html=1;outlineConnect=0;" parent="BRgnJ0PHQMTPJbR9eP97-1" vertex="1">
          <mxGeometry x="50" y="260" width="30" height="60" as="geometry" />
        </mxCell>
        <mxCell id="uJZphUykILN5ftCnCod7-2" value="Mạng" style="ellipse;shape=cloud;whiteSpace=wrap;html=1;" parent="BRgnJ0PHQMTPJbR9eP97-1" vertex="1">
          <mxGeometry x="310" y="247.5" width="165" height="85" as="geometry" />
        </mxCell>
        <mxCell id="uJZphUykILN5ftCnCod7-3" value="1. Gửi yêu cầu" style="endArrow=classic;html=1;rounded=0;" parent="BRgnJ0PHQMTPJbR9eP97-1" source="uJZphUykILN5ftCnCod7-1" target="uJZphUykILN5ftCnCod7-2" edge="1">
          <mxGeometry width="50" height="50" relative="1" as="geometry">
            <mxPoint x="300" y="260" as="sourcePoint" />
            <mxPoint x="350" y="210" as="targetPoint" />
          </mxGeometry>
        </mxCell>
        <mxCell id="uJZphUykILN5ftCnCod7-4" value="Apache HTTP Server" style="shape=cube;whiteSpace=wrap;html=1;boundedLbl=1;backgroundOutline=1;darkOpacity=0.05;darkOpacity2=0.1;" parent="BRgnJ0PHQMTPJbR9eP97-1" vertex="1">
          <mxGeometry x="640" y="247.5" width="120" height="80" as="geometry" />
        </mxCell>
        <mxCell id="uJZphUykILN5ftCnCod7-5" value="2. Nhận yêu cầu" style="endArrow=classic;html=1;rounded=0;" parent="BRgnJ0PHQMTPJbR9eP97-1" source="uJZphUykILN5ftCnCod7-2" target="uJZphUykILN5ftCnCod7-4" edge="1">
          <mxGeometry width="50" height="50" relative="1" as="geometry">
            <mxPoint x="510" y="260" as="sourcePoint" />
            <mxPoint x="560" y="210" as="targetPoint" />
          </mxGeometry>
        </mxCell>
        <mxCell id="uJZphUykILN5ftCnCod7-6" value="JavaEE Application (Ứng dụng của chúng ta)" style="swimlane;whiteSpace=wrap;html=1;startSize=20;" parent="BRgnJ0PHQMTPJbR9eP97-1" vertex="1">
          <mxGeometry y="540" width="420" height="350" as="geometry" />
        </mxCell>
        <mxCell id="uJZphUykILN5ftCnCod7-10" value="Servlet" style="rounded=0;whiteSpace=wrap;html=1;" parent="uJZphUykILN5ftCnCod7-6" vertex="1">
          <mxGeometry x="150" y="145" width="120" height="60" as="geometry" />
        </mxCell>
        <mxCell id="uJZphUykILN5ftCnCod7-12" value="5. Xử lý Back-end&lt;div&gt;6. Tạo nội dung phản hồi&lt;/div&gt;" style="endArrow=classic;html=1;rounded=0;exitX=0.5;exitY=0;exitDx=0;exitDy=0;entryX=0;entryY=0.5;entryDx=0;entryDy=0;" parent="uJZphUykILN5ftCnCod7-6" source="uJZphUykILN5ftCnCod7-10" target="uJZphUykILN5ftCnCod7-10" edge="1">
          <mxGeometry width="50" height="50" relative="1" as="geometry">
            <mxPoint x="290" y="60" as="sourcePoint" />
            <mxPoint x="340" y="10" as="targetPoint" />
            <Array as="points">
              <mxPoint x="210" y="100" />
              <mxPoint x="110" y="100" />
              <mxPoint x="110" y="175" />
            </Array>
          </mxGeometry>
        </mxCell>
        <mxCell id="uJZphUykILN5ftCnCod7-8" value="Tomcat Container" style="shape=cube;whiteSpace=wrap;html=1;boundedLbl=1;backgroundOutline=1;darkOpacity=0.05;darkOpacity2=0.1;" parent="BRgnJ0PHQMTPJbR9eP97-1" vertex="1">
          <mxGeometry x="640" y="675" width="120" height="80" as="geometry" />
        </mxCell>
        <mxCell id="uJZphUykILN5ftCnCod7-9" value="3. Chuyển tiếp yêu cầu đến" style="endArrow=classic;html=1;rounded=0;" parent="BRgnJ0PHQMTPJbR9eP97-1" source="uJZphUykILN5ftCnCod7-4" target="uJZphUykILN5ftCnCod7-8" edge="1">
          <mxGeometry width="50" height="50" relative="1" as="geometry">
            <mxPoint x="530" y="540" as="sourcePoint" />
            <mxPoint x="580" y="490" as="targetPoint" />
          </mxGeometry>
        </mxCell>
        <mxCell id="uJZphUykILN5ftCnCod7-11" value="4. Gọi doGet() hoặc doPost()" style="endArrow=classic;html=1;rounded=0;" parent="BRgnJ0PHQMTPJbR9eP97-1" source="uJZphUykILN5ftCnCod7-8" target="uJZphUykILN5ftCnCod7-10" edge="1">
          <mxGeometry width="50" height="50" relative="1" as="geometry">
            <mxPoint x="420" y="650" as="sourcePoint" />
            <mxPoint x="470" y="600" as="targetPoint" />
          </mxGeometry>
        </mxCell>
        <mxCell id="uJZphUykILN5ftCnCod7-13" value="7. Trả nội dung phản hồi về" style="endArrow=classic;html=1;rounded=0;" parent="BRgnJ0PHQMTPJbR9eP97-1" source="uJZphUykILN5ftCnCod7-10" target="uJZphUykILN5ftCnCod7-8" edge="1">
          <mxGeometry width="50" height="50" relative="1" as="geometry">
            <mxPoint x="290" y="600" as="sourcePoint" />
            <mxPoint x="340" y="550" as="targetPoint" />
            <Array as="points">
              <mxPoint x="460" y="760" />
            </Array>
          </mxGeometry>
        </mxCell>
        <mxCell id="uJZphUykILN5ftCnCod7-14" value="8. Tạo phản hồi HTTP&lt;div&gt;từ nội dung trả ra của Servlet&lt;/div&gt;" style="endArrow=classic;html=1;rounded=0;entryX=0;entryY=0;entryDx=120;entryDy=50;entryPerimeter=0;exitX=0;exitY=0;exitDx=100;exitDy=0;exitPerimeter=0;" parent="BRgnJ0PHQMTPJbR9eP97-1" source="uJZphUykILN5ftCnCod7-8" target="uJZphUykILN5ftCnCod7-8" edge="1">
          <mxGeometry width="50" height="50" relative="1" as="geometry">
            <mxPoint x="710" y="550" as="sourcePoint" />
            <mxPoint x="760" y="500" as="targetPoint" />
            <Array as="points">
              <mxPoint x="740" y="630" />
              <mxPoint x="870" y="630" />
              <mxPoint x="870" y="725" />
            </Array>
          </mxGeometry>
        </mxCell>
        <mxCell id="uJZphUykILN5ftCnCod7-15" value="9. Gửi phản hồi về" style="endArrow=classic;html=1;rounded=0;" parent="BRgnJ0PHQMTPJbR9eP97-1" source="uJZphUykILN5ftCnCod7-8" target="uJZphUykILN5ftCnCod7-4" edge="1">
          <mxGeometry width="50" height="50" relative="1" as="geometry">
            <mxPoint x="710" y="530" as="sourcePoint" />
            <mxPoint x="760" y="480" as="targetPoint" />
            <Array as="points">
              <mxPoint x="570" y="480" />
            </Array>
          </mxGeometry>
        </mxCell>
        <mxCell id="uJZphUykILN5ftCnCod7-16" value="10. Chuyển tiếp phản hồi về trình duyệt" style="endArrow=classic;html=1;rounded=0;" parent="BRgnJ0PHQMTPJbR9eP97-1" source="uJZphUykILN5ftCnCod7-4" target="uJZphUykILN5ftCnCod7-2" edge="1">
          <mxGeometry width="50" height="50" relative="1" as="geometry">
            <mxPoint x="460" y="310" as="sourcePoint" />
            <mxPoint x="510" y="260" as="targetPoint" />
            <Array as="points">
              <mxPoint x="560" y="220" />
            </Array>
          </mxGeometry>
        </mxCell>
        <mxCell id="uJZphUykILN5ftCnCod7-17" value="11. Nhận phản hồi" style="endArrow=classic;html=1;rounded=0;" parent="BRgnJ0PHQMTPJbR9eP97-1" source="uJZphUykILN5ftCnCod7-2" target="uJZphUykILN5ftCnCod7-1" edge="1">
          <mxGeometry width="50" height="50" relative="1" as="geometry">
            <mxPoint x="240" y="330" as="sourcePoint" />
            <mxPoint x="290" y="280" as="targetPoint" />
            <Array as="points">
              <mxPoint x="190" y="330" />
            </Array>
          </mxGeometry>
        </mxCell>
        <mxCell id="7BcjyuI9yLYFtmCwNKjE-1" value="Tomcat Container" style="shape=cube;whiteSpace=wrap;html=1;boundedLbl=1;backgroundOutline=1;darkOpacity=0.05;darkOpacity2=0.1;" vertex="1" parent="BRgnJ0PHQMTPJbR9eP97-1">
          <mxGeometry x="290" y="1270" width="120" height="80" as="geometry" />
        </mxCell>
        <mxCell id="7BcjyuI9yLYFtmCwNKjE-2" value="Người dùng" style="shape=umlActor;verticalLabelPosition=bottom;verticalAlign=top;html=1;outlineConnect=0;" vertex="1" parent="BRgnJ0PHQMTPJbR9eP97-1">
          <mxGeometry x="110" y="1280" width="30" height="60" as="geometry" />
        </mxCell>
        <mxCell id="7BcjyuI9yLYFtmCwNKjE-3" value="1.Chạy" style="endArrow=classic;html=1;rounded=0;" edge="1" parent="BRgnJ0PHQMTPJbR9eP97-1" source="7BcjyuI9yLYFtmCwNKjE-2" target="7BcjyuI9yLYFtmCwNKjE-1">
          <mxGeometry width="50" height="50" relative="1" as="geometry">
            <mxPoint x="330" y="1180" as="sourcePoint" />
            <mxPoint x="380" y="1130" as="targetPoint" />
          </mxGeometry>
        </mxCell>
        <mxCell id="7BcjyuI9yLYFtmCwNKjE-5" value="Ứng dụng JavaEE" style="rounded=0;whiteSpace=wrap;html=1;" vertex="1" parent="BRgnJ0PHQMTPJbR9eP97-1">
          <mxGeometry x="590" y="1280" width="120" height="60" as="geometry" />
        </mxCell>
        <mxCell id="7BcjyuI9yLYFtmCwNKjE-6" value="2. Đọc thông tin" style="endArrow=classic;html=1;rounded=0;" edge="1" parent="BRgnJ0PHQMTPJbR9eP97-1" source="7BcjyuI9yLYFtmCwNKjE-1" target="7BcjyuI9yLYFtmCwNKjE-5">
          <mxGeometry width="50" height="50" relative="1" as="geometry">
            <mxPoint x="420" y="1260" as="sourcePoint" />
            <mxPoint x="470" y="1210" as="targetPoint" />
          </mxGeometry>
        </mxCell>
        <mxCell id="7BcjyuI9yLYFtmCwNKjE-7" value="Servlet" style="rounded=0;whiteSpace=wrap;html=1;" vertex="1" parent="BRgnJ0PHQMTPJbR9eP97-1">
          <mxGeometry x="590" y="1450" width="120" height="60" as="geometry" />
        </mxCell>
        <mxCell id="7BcjyuI9yLYFtmCwNKjE-8" value="Chứa" style="endArrow=classic;html=1;rounded=0;" edge="1" parent="BRgnJ0PHQMTPJbR9eP97-1" source="7BcjyuI9yLYFtmCwNKjE-5" target="7BcjyuI9yLYFtmCwNKjE-7">
          <mxGeometry width="50" height="50" relative="1" as="geometry">
            <mxPoint x="420" y="1260" as="sourcePoint" />
            <mxPoint x="470" y="1210" as="targetPoint" />
          </mxGeometry>
        </mxCell>
        <mxCell id="7BcjyuI9yLYFtmCwNKjE-9" value="3. Khởi tạo" style="endArrow=classic;html=1;rounded=0;" edge="1" parent="BRgnJ0PHQMTPJbR9eP97-1" source="7BcjyuI9yLYFtmCwNKjE-1" target="7BcjyuI9yLYFtmCwNKjE-7">
          <mxGeometry width="50" height="50" relative="1" as="geometry">
            <mxPoint x="420" y="1260" as="sourcePoint" />
            <mxPoint x="470" y="1210" as="targetPoint" />
          </mxGeometry>
        </mxCell>
        <mxCell id="7BcjyuI9yLYFtmCwNKjE-10" value="Tomcat Container" style="shape=cube;whiteSpace=wrap;html=1;boundedLbl=1;backgroundOutline=1;darkOpacity=0.05;darkOpacity2=0.1;" vertex="1" parent="BRgnJ0PHQMTPJbR9eP97-1">
          <mxGeometry x="310" y="1920" width="120" height="80" as="geometry" />
        </mxCell>
        <mxCell id="7BcjyuI9yLYFtmCwNKjE-11" value="Người dùng" style="shape=umlActor;verticalLabelPosition=bottom;verticalAlign=top;html=1;outlineConnect=0;" vertex="1" parent="BRgnJ0PHQMTPJbR9eP97-1">
          <mxGeometry x="130" y="1930" width="30" height="60" as="geometry" />
        </mxCell>
        <mxCell id="7BcjyuI9yLYFtmCwNKjE-12" value="1. Tắt" style="endArrow=classic;html=1;rounded=0;" edge="1" source="7BcjyuI9yLYFtmCwNKjE-11" target="7BcjyuI9yLYFtmCwNKjE-10" parent="BRgnJ0PHQMTPJbR9eP97-1">
          <mxGeometry width="50" height="50" relative="1" as="geometry">
            <mxPoint x="350" y="1830" as="sourcePoint" />
            <mxPoint x="400" y="1780" as="targetPoint" />
          </mxGeometry>
        </mxCell>
        <mxCell id="7BcjyuI9yLYFtmCwNKjE-13" value="Ứng dụng JavaEE" style="rounded=0;whiteSpace=wrap;html=1;" vertex="1" parent="BRgnJ0PHQMTPJbR9eP97-1">
          <mxGeometry x="610" y="1930" width="120" height="60" as="geometry" />
        </mxCell>
        <mxCell id="7BcjyuI9yLYFtmCwNKjE-14" value="Đã có thông tin" style="endArrow=classic;html=1;rounded=0;" edge="1" source="7BcjyuI9yLYFtmCwNKjE-10" target="7BcjyuI9yLYFtmCwNKjE-13" parent="BRgnJ0PHQMTPJbR9eP97-1">
          <mxGeometry width="50" height="50" relative="1" as="geometry">
            <mxPoint x="440" y="1910" as="sourcePoint" />
            <mxPoint x="490" y="1860" as="targetPoint" />
          </mxGeometry>
        </mxCell>
        <mxCell id="7BcjyuI9yLYFtmCwNKjE-15" value="Servlet" style="rounded=0;whiteSpace=wrap;html=1;" vertex="1" parent="BRgnJ0PHQMTPJbR9eP97-1">
          <mxGeometry x="610" y="2100" width="120" height="60" as="geometry" />
        </mxCell>
        <mxCell id="7BcjyuI9yLYFtmCwNKjE-16" value="Chứa" style="endArrow=classic;html=1;rounded=0;" edge="1" source="7BcjyuI9yLYFtmCwNKjE-13" target="7BcjyuI9yLYFtmCwNKjE-15" parent="BRgnJ0PHQMTPJbR9eP97-1">
          <mxGeometry width="50" height="50" relative="1" as="geometry">
            <mxPoint x="440" y="1910" as="sourcePoint" />
            <mxPoint x="490" y="1860" as="targetPoint" />
          </mxGeometry>
        </mxCell>
        <mxCell id="7BcjyuI9yLYFtmCwNKjE-17" value="2. Tiêu hủy" style="endArrow=classic;html=1;rounded=0;" edge="1" source="7BcjyuI9yLYFtmCwNKjE-10" target="7BcjyuI9yLYFtmCwNKjE-15" parent="BRgnJ0PHQMTPJbR9eP97-1">
          <mxGeometry width="50" height="50" relative="1" as="geometry">
            <mxPoint x="440" y="1910" as="sourcePoint" />
            <mxPoint x="490" y="1860" as="targetPoint" />
          </mxGeometry>
        </mxCell>
      </root>
    </mxGraphModel>
  </diagram>
  <diagram id="-SNFn2XB7vuTFsCbiW31" name="JSP">
    <mxGraphModel dx="1900" dy="629" grid="1" gridSize="10" guides="1" tooltips="1" connect="1" arrows="1" fold="1" page="1" pageScale="1" pageWidth="850" pageHeight="1100" math="0" shadow="0">
      <root>
        <mxCell id="0" />
        <mxCell id="1" parent="0" />
        <mxCell id="AxBvDQU5ndXn4WTRxCgH-1" value="Trình duyệt web" style="shape=umlActor;verticalLabelPosition=bottom;verticalAlign=top;html=1;outlineConnect=0;" vertex="1" parent="1">
          <mxGeometry x="90" y="80" width="30" height="60" as="geometry" />
        </mxCell>
        <mxCell id="AxBvDQU5ndXn4WTRxCgH-2" value="Apache" style="rounded=0;whiteSpace=wrap;html=1;" vertex="1" parent="1">
          <mxGeometry x="420" y="80" width="120" height="60" as="geometry" />
        </mxCell>
        <mxCell id="AxBvDQU5ndXn4WTRxCgH-3" value="1. Truy cập /index.jsp" style="endArrow=classic;html=1;rounded=0;" edge="1" parent="1" source="AxBvDQU5ndXn4WTRxCgH-1" target="AxBvDQU5ndXn4WTRxCgH-2">
          <mxGeometry width="50" height="50" relative="1" as="geometry">
            <mxPoint x="520" y="150" as="sourcePoint" />
            <mxPoint x="570" y="100" as="targetPoint" />
          </mxGeometry>
        </mxCell>
        <mxCell id="AxBvDQU5ndXn4WTRxCgH-4" value="Tomcat Container" style="rounded=0;whiteSpace=wrap;html=1;" vertex="1" parent="1">
          <mxGeometry x="420" y="320" width="120" height="60" as="geometry" />
        </mxCell>
        <mxCell id="AxBvDQU5ndXn4WTRxCgH-5" value="Apache Tomcat" style="rounded=0;whiteSpace=wrap;html=1;" vertex="1" parent="1">
          <mxGeometry x="640" y="230" width="120" height="60" as="geometry" />
        </mxCell>
        <mxCell id="AxBvDQU5ndXn4WTRxCgH-7" value="" style="endArrow=none;html=1;rounded=0;" edge="1" parent="1" source="AxBvDQU5ndXn4WTRxCgH-2" target="AxBvDQU5ndXn4WTRxCgH-5">
          <mxGeometry width="50" height="50" relative="1" as="geometry">
            <mxPoint x="440" y="290" as="sourcePoint" />
            <mxPoint x="490" y="240" as="targetPoint" />
          </mxGeometry>
        </mxCell>
        <mxCell id="AxBvDQU5ndXn4WTRxCgH-8" value="" style="endArrow=none;html=1;rounded=0;" edge="1" parent="1" source="AxBvDQU5ndXn4WTRxCgH-4" target="AxBvDQU5ndXn4WTRxCgH-5">
          <mxGeometry width="50" height="50" relative="1" as="geometry">
            <mxPoint x="440" y="290" as="sourcePoint" />
            <mxPoint x="490" y="240" as="targetPoint" />
          </mxGeometry>
        </mxCell>
        <mxCell id="AxBvDQU5ndXn4WTRxCgH-9" value="2. Chuyển tiếp yêu cầu HTTP" style="endArrow=classic;html=1;rounded=0;" edge="1" parent="1" source="AxBvDQU5ndXn4WTRxCgH-2" target="AxBvDQU5ndXn4WTRxCgH-4">
          <mxGeometry width="50" height="50" relative="1" as="geometry">
            <mxPoint x="260" y="230" as="sourcePoint" />
            <mxPoint x="430" y="240" as="targetPoint" />
          </mxGeometry>
        </mxCell>
        <mxCell id="AxBvDQU5ndXn4WTRxCgH-10" value="JavaEE Apllication" style="rounded=0;whiteSpace=wrap;html=1;" vertex="1" parent="1">
          <mxGeometry x="420" y="480" width="120" height="60" as="geometry" />
        </mxCell>
        <mxCell id="AxBvDQU5ndXn4WTRxCgH-12" value="3. Tìm kiếm /index.jsp trong" style="endArrow=classic;html=1;rounded=0;" edge="1" parent="1" source="AxBvDQU5ndXn4WTRxCgH-4" target="AxBvDQU5ndXn4WTRxCgH-10">
          <mxGeometry width="50" height="50" relative="1" as="geometry">
            <mxPoint x="380" y="290" as="sourcePoint" />
            <mxPoint x="430" y="240" as="targetPoint" />
          </mxGeometry>
        </mxCell>
        <mxCell id="AxBvDQU5ndXn4WTRxCgH-13" value="index.jsp" style="rounded=0;whiteSpace=wrap;html=1;" vertex="1" parent="1">
          <mxGeometry x="180" y="480" width="120" height="60" as="geometry" />
        </mxCell>
        <mxCell id="AxBvDQU5ndXn4WTRxCgH-15" value="" style="endArrow=none;html=1;rounded=0;" edge="1" parent="1" source="AxBvDQU5ndXn4WTRxCgH-13" target="AxBvDQU5ndXn4WTRxCgH-10">
          <mxGeometry width="50" height="50" relative="1" as="geometry">
            <mxPoint x="290" y="410" as="sourcePoint" />
            <mxPoint x="340" y="360" as="targetPoint" />
          </mxGeometry>
        </mxCell>
        <mxCell id="AxBvDQU5ndXn4WTRxCgH-16" value="4. Dịch sang lớp Servlet" style="endArrow=classic;html=1;rounded=0;" edge="1" parent="1" source="AxBvDQU5ndXn4WTRxCgH-4" target="AxBvDQU5ndXn4WTRxCgH-13">
          <mxGeometry x="0.4" width="50" height="50" relative="1" as="geometry">
            <mxPoint x="380" y="290" as="sourcePoint" />
            <mxPoint x="430" y="240" as="targetPoint" />
            <mxPoint as="offset" />
          </mxGeometry>
        </mxCell>
        <mxCell id="AxBvDQU5ndXn4WTRxCgH-19" value="HttpServlet" style="rounded=0;whiteSpace=wrap;html=1;" vertex="1" parent="1">
          <mxGeometry x="-110" y="480" width="120" height="60" as="geometry" />
        </mxCell>
        <mxCell id="AxBvDQU5ndXn4WTRxCgH-20" value="4. Dịch sang lớp Servlet" style="endArrow=classic;html=1;rounded=0;" edge="1" parent="1" source="AxBvDQU5ndXn4WTRxCgH-13" target="AxBvDQU5ndXn4WTRxCgH-19">
          <mxGeometry x="-0.0588" y="-10" width="50" height="50" relative="1" as="geometry">
            <mxPoint x="380" y="290" as="sourcePoint" />
            <mxPoint x="430" y="240" as="targetPoint" />
            <mxPoint as="offset" />
          </mxGeometry>
        </mxCell>
        <mxCell id="AxBvDQU5ndXn4WTRxCgH-22" value="5. Gọi doGet()" style="endArrow=classic;html=1;rounded=0;" edge="1" parent="1" source="AxBvDQU5ndXn4WTRxCgH-4" target="AxBvDQU5ndXn4WTRxCgH-19">
          <mxGeometry width="50" height="50" relative="1" as="geometry">
            <mxPoint x="380" y="290" as="sourcePoint" />
            <mxPoint x="430" y="240" as="targetPoint" />
            <Array as="points">
              <mxPoint x="70" y="380" />
            </Array>
          </mxGeometry>
        </mxCell>
        <mxCell id="AxBvDQU5ndXn4WTRxCgH-23" value="6. Tạo nội dung phản hồi" style="endArrow=classic;html=1;rounded=0;exitX=0.5;exitY=1;exitDx=0;exitDy=0;entryX=0;entryY=0.5;entryDx=0;entryDy=0;" edge="1" parent="1" source="AxBvDQU5ndXn4WTRxCgH-19" target="AxBvDQU5ndXn4WTRxCgH-19">
          <mxGeometry width="50" height="50" relative="1" as="geometry">
            <mxPoint x="160" y="410" as="sourcePoint" />
            <mxPoint x="-190" y="590" as="targetPoint" />
            <Array as="points">
              <mxPoint x="-50" y="580" />
              <mxPoint x="-170" y="580" />
              <mxPoint x="-170" y="510" />
            </Array>
          </mxGeometry>
        </mxCell>
        <mxCell id="AxBvDQU5ndXn4WTRxCgH-24" value="7. Trả nội dung phản hồi cho" style="endArrow=classic;html=1;rounded=0;exitX=0.75;exitY=1;exitDx=0;exitDy=0;" edge="1" parent="1" source="AxBvDQU5ndXn4WTRxCgH-19" target="AxBvDQU5ndXn4WTRxCgH-4">
          <mxGeometry x="0.8425" width="50" height="50" relative="1" as="geometry">
            <mxPoint x="390" y="450" as="sourcePoint" />
            <mxPoint x="440" y="400" as="targetPoint" />
            <Array as="points">
              <mxPoint x="-20" y="600" />
              <mxPoint x="740" y="600" />
              <mxPoint x="740" y="350" />
            </Array>
            <mxPoint as="offset" />
          </mxGeometry>
        </mxCell>
        <mxCell id="AxBvDQU5ndXn4WTRxCgH-25" value="8. Tạo phản hồi HTTP" style="endArrow=classic;html=1;rounded=0;exitX=0.25;exitY=0;exitDx=0;exitDy=0;entryX=0;entryY=0.5;entryDx=0;entryDy=0;" edge="1" parent="1" source="AxBvDQU5ndXn4WTRxCgH-4" target="AxBvDQU5ndXn4WTRxCgH-4">
          <mxGeometry width="50" height="50" relative="1" as="geometry">
            <mxPoint x="380" y="310" as="sourcePoint" />
            <mxPoint x="220" y="240" as="targetPoint" />
            <Array as="points">
              <mxPoint x="450" y="290" />
              <mxPoint x="350" y="290" />
              <mxPoint x="350" y="350" />
            </Array>
          </mxGeometry>
        </mxCell>
        <mxCell id="AxBvDQU5ndXn4WTRxCgH-26" value="9. Chuyển tiếp phản hồi HTTP về" style="endArrow=classic;html=1;rounded=0;exitX=0.75;exitY=0;exitDx=0;exitDy=0;entryX=0.75;entryY=1;entryDx=0;entryDy=0;" edge="1" parent="1" source="AxBvDQU5ndXn4WTRxCgH-4" target="AxBvDQU5ndXn4WTRxCgH-2">
          <mxGeometry x="-0.3333" y="-20" width="50" height="50" relative="1" as="geometry">
            <mxPoint x="380" y="310" as="sourcePoint" />
            <mxPoint x="430" y="260" as="targetPoint" />
            <mxPoint as="offset" />
          </mxGeometry>
        </mxCell>
        <mxCell id="AxBvDQU5ndXn4WTRxCgH-27" value="10. Chuyển tiếp phản hồi HTTP về" style="endArrow=classic;html=1;rounded=0;exitX=0;exitY=1;exitDx=0;exitDy=0;entryX=0.5;entryY=0.5;entryDx=0;entryDy=0;entryPerimeter=0;" edge="1" parent="1" source="AxBvDQU5ndXn4WTRxCgH-2" target="AxBvDQU5ndXn4WTRxCgH-1">
          <mxGeometry width="50" height="50" relative="1" as="geometry">
            <mxPoint x="380" y="310" as="sourcePoint" />
            <mxPoint x="430" y="260" as="targetPoint" />
            <Array as="points">
              <mxPoint x="170" y="140" />
            </Array>
          </mxGeometry>
        </mxCell>
      </root>
    </mxGraphModel>
  </diagram>
</mxfile>
